<svg width="521" height="88" viewBox="0 0 521 88" fill="none" xmlns="http://www.w3.org/2000/svg">
<path d="M0.470535 0.931961L78.283 38.948L6.45394 87.3276L0.470535 0.931961Z" fill="#6CDAFF"/>
<path d="M36.24 31.504L35.232 37.312H27.744V64H19.824V37.312H12.096V31.504H36.24ZM33.7804 52.624C33.7804 50.48 34.0844 48.592 34.6924 46.96C35.3324 45.296 36.1964 43.92 37.2844 42.832C38.4044 41.712 39.7004 40.864 41.1724 40.288C42.6444 39.712 44.2444 39.424 45.9724 39.424C47.4764 39.424 48.7564 39.616 49.8124 40C50.8684 40.352 51.7324 40.864 52.4044 41.536C53.0764 42.176 53.5724 42.944 53.8924 43.84C54.2124 44.704 54.3724 45.648 54.3724 46.672C54.3724 47.824 54.0844 48.912 53.5084 49.936C52.9324 50.96 52.1004 51.872 51.0124 52.672C49.9564 53.44 48.6604 54.08 47.1244 54.592C45.6204 55.104 43.9084 55.44 41.9884 55.6C42.2124 56.56 42.6124 57.344 43.1884 57.952C43.7964 58.528 44.7084 58.816 45.9244 58.816C46.6284 58.816 47.3804 58.736 48.1804 58.576C48.9804 58.416 49.7164 58.24 50.3884 58.048C51.1884 57.824 51.9724 57.568 52.7404 57.28L54.1804 62.272C53.3164 62.688 52.3724 63.056 51.3484 63.376C50.4844 63.632 49.4764 63.872 48.3244 64.096C47.2044 64.32 46.0044 64.432 44.7244 64.432C42.7724 64.432 41.0924 64.144 39.6844 63.568C38.3084 62.992 37.1724 62.192 36.2764 61.168C35.4124 60.144 34.7724 58.912 34.3564 57.472C33.9724 56 33.7804 54.384 33.7804 52.624ZM45.0124 44.848C44.4044 44.848 43.8764 45.024 43.4284 45.376C43.0124 45.728 42.6764 46.192 42.4204 46.768C42.1644 47.344 41.9724 47.984 41.8444 48.688C41.7164 49.392 41.6364 50.08 41.6044 50.752C42.5644 50.72 43.3644 50.576 44.0044 50.32C44.6764 50.064 45.2204 49.744 45.6364 49.36C46.0524 48.976 46.3564 48.56 46.5484 48.112C46.7404 47.664 46.8364 47.248 46.8364 46.864C46.8364 46.256 46.6604 45.776 46.3084 45.424C45.9884 45.04 45.5564 44.848 45.0124 44.848ZM65.7731 29.2V41.776C66.3811 41.232 67.1811 40.736 68.1731 40.288C69.1651 39.808 70.4611 39.568 72.0611 39.568C73.0531 39.568 73.9811 39.712 74.8451 40C75.7091 40.288 76.4451 40.72 77.0531 41.296C77.6931 41.84 78.1891 42.512 78.5411 43.312C78.9251 44.08 79.1171 44.96 79.1171 45.952C79.1171 47.392 78.8451 48.592 78.3011 49.552C77.7891 50.48 77.2131 51.216 76.5731 51.76C75.8371 52.4 75.0051 52.912 74.0771 53.296L80.7971 64H72.1571C70.7491 61.632 69.6131 59.472 68.7491 57.52C67.8851 55.536 67.2931 53.696 66.9731 52L66.9251 51.28C67.1491 51.248 67.5171 51.168 68.0291 51.04C68.5411 50.88 69.0531 50.656 69.5651 50.368C70.1091 50.048 70.5731 49.648 70.9571 49.168C71.3731 48.688 71.5811 48.112 71.5811 47.44C71.5811 46.704 71.3891 46.144 71.0051 45.76C70.6531 45.344 70.1891 45.136 69.6131 45.136C68.8771 45.136 68.2531 45.312 67.7411 45.664C67.2611 46.016 66.8771 46.416 66.5891 46.864C66.3011 47.312 66.0931 47.76 65.9651 48.208C65.8371 48.624 65.7731 48.928 65.7731 49.12V64H58.1891V30.496L65.7731 29.2ZM91.5544 29.2V41.776C92.1624 41.232 92.9624 40.736 93.9544 40.288C94.9464 39.808 96.2424 39.568 97.8424 39.568C98.8344 39.568 99.7624 39.712 100.626 40C101.49 40.288 102.226 40.72 102.834 41.296C103.474 41.84 103.97 42.512 104.322 43.312C104.706 44.08 104.898 44.96 104.898 45.952C104.898 47.392 104.626 48.592 104.082 49.552C103.57 50.48 102.994 51.216 102.354 51.76C101.618 52.4 100.786 52.912 99.8584 53.296L106.578 64H97.9384C96.5304 61.632 95.3944 59.472 94.5304 57.52C93.6664 55.536 93.0744 53.696 92.7544 52L92.7064 51.28C92.9304 51.248 93.2984 51.168 93.8104 51.04C94.3224 50.88 94.8344 50.656 95.3464 50.368C95.8904 50.048 96.3544 49.648 96.7384 49.168C97.1544 48.688 97.3624 48.112 97.3624 47.44C97.3624 46.704 97.1704 46.144 96.7864 45.76C96.4344 45.344 95.9704 45.136 95.3944 45.136C94.6584 45.136 94.0344 45.312 93.5224 45.664C93.0424 46.016 92.6584 46.416 92.3704 46.864C92.0824 47.312 91.8744 47.76 91.7464 48.208C91.6184 48.624 91.5544 48.928 91.5544 49.12V64H83.9704V30.496L91.5544 29.2ZM107.093 52.624C107.093 50.48 107.397 48.592 108.005 46.96C108.645 45.296 109.509 43.92 110.597 42.832C111.717 41.712 113.013 40.864 114.485 40.288C115.957 39.712 117.557 39.424 119.285 39.424C120.789 39.424 122.069 39.616 123.125 40C124.181 40.352 125.045 40.864 125.717 41.536C126.389 42.176 126.885 42.944 127.205 43.84C127.525 44.704 127.685 45.648 127.685 46.672C127.685 47.824 127.397 48.912 126.821 49.936C126.245 50.96 125.413 51.872 124.325 52.672C123.269 53.44 121.973 54.08 120.437 54.592C118.933 55.104 117.221 55.44 115.301 55.6C115.525 56.56 115.925 57.344 116.501 57.952C117.109 58.528 118.021 58.816 119.237 58.816C119.941 58.816 120.693 58.736 121.493 58.576C122.293 58.416 123.029 58.24 123.701 58.048C124.501 57.824 125.285 57.568 126.053 57.28L127.493 62.272C126.629 62.688 125.685 63.056 124.661 63.376C123.797 63.632 122.789 63.872 121.637 64.096C120.517 64.32 119.317 64.432 118.037 64.432C116.085 64.432 114.405 64.144 112.997 63.568C111.621 62.992 110.485 62.192 109.589 61.168C108.725 60.144 108.085 58.912 107.669 57.472C107.285 56 107.093 54.384 107.093 52.624ZM118.325 44.848C117.717 44.848 117.189 45.024 116.741 45.376C116.325 45.728 115.989 46.192 115.733 46.768C115.477 47.344 115.285 47.984 115.157 48.688C115.029 49.392 114.949 50.08 114.917 50.752C115.877 50.72 116.677 50.576 117.317 50.32C117.989 50.064 118.533 49.744 118.949 49.36C119.365 48.976 119.669 48.56 119.861 48.112C120.053 47.664 120.149 47.248 120.149 46.864C120.149 46.256 119.973 45.776 119.621 45.424C119.301 45.04 118.869 44.848 118.325 44.848ZM145.374 64V49.024C145.374 47.904 145.23 47.008 144.942 46.336C144.686 45.632 144.19 45.28 143.454 45.28C142.558 45.28 141.726 45.872 140.958 47.056C140.19 48.208 139.806 49.84 139.806 51.952V64H132.222V51.52C132.222 49.6 132.078 48.016 131.79 46.768C131.534 45.488 131.23 44.448 130.878 43.648C130.494 42.752 130.062 42.032 129.582 41.488L135.678 39.568C135.966 39.888 136.254 40.256 136.542 40.672C136.798 41.024 137.038 41.488 137.262 42.064C137.518 42.608 137.726 43.232 137.886 43.936C138.718 42.432 139.854 41.328 141.294 40.624C142.766 39.92 144.366 39.568 146.094 39.568C148.59 39.568 150.366 40.336 151.422 41.872C152.478 43.376 153.006 45.392 153.006 47.92V64H145.374ZM158.085 31.504H166.005V58.192H177.429V64H158.085V31.504ZM177.452 52.624C177.452 50.48 177.756 48.592 178.364 46.96C179.004 45.296 179.868 43.92 180.956 42.832C182.076 41.712 183.372 40.864 184.844 40.288C186.316 39.712 187.916 39.424 189.644 39.424C191.148 39.424 192.428 39.616 193.484 40C194.54 40.352 195.404 40.864 196.076 41.536C196.748 42.176 197.244 42.944 197.564 43.84C197.884 44.704 198.044 45.648 198.044 46.672C198.044 47.824 197.756 48.912 197.18 49.936C196.604 50.96 195.772 51.872 194.684 52.672C193.628 53.44 192.332 54.08 190.796 54.592C189.292 55.104 187.58 55.44 185.66 55.6C185.884 56.56 186.284 57.344 186.86 57.952C187.468 58.528 188.38 58.816 189.596 58.816C190.3 58.816 191.052 58.736 191.852 58.576C192.652 58.416 193.388 58.24 194.06 58.048C194.86 57.824 195.644 57.568 196.412 57.28L197.852 62.272C196.988 62.688 196.044 63.056 195.02 63.376C194.156 63.632 193.148 63.872 191.996 64.096C190.876 64.32 189.676 64.432 188.396 64.432C186.444 64.432 184.764 64.144 183.356 63.568C181.98 62.992 180.844 62.192 179.948 61.168C179.084 60.144 178.444 58.912 178.028 57.472C177.644 56 177.452 54.384 177.452 52.624ZM188.684 44.848C188.076 44.848 187.548 45.024 187.1 45.376C186.684 45.728 186.348 46.192 186.092 46.768C185.836 47.344 185.644 47.984 185.516 48.688C185.388 49.392 185.308 50.08 185.276 50.752C186.236 50.72 187.036 50.576 187.676 50.32C188.348 50.064 188.892 49.744 189.308 49.36C189.724 48.976 190.028 48.56 190.22 48.112C190.412 47.664 190.508 47.248 190.508 46.864C190.508 46.256 190.332 45.776 189.98 45.424C189.66 45.04 189.228 44.848 188.684 44.848ZM222.021 52.432C222.021 54.352 222.149 55.952 222.405 57.232C222.661 58.512 222.965 59.536 223.317 60.304C223.701 61.232 224.149 61.952 224.661 62.464L218.565 64.384C218.213 64.064 217.893 63.664 217.605 63.184C217.349 62.768 217.093 62.272 216.837 61.696C216.613 61.088 216.421 60.384 216.261 59.584C215.717 61.088 214.917 62.256 213.861 63.088C212.805 63.888 211.413 64.288 209.685 64.288C208.117 64.288 206.741 64 205.557 63.424C204.405 62.848 203.445 62.048 202.677 61.024C201.909 59.968 201.333 58.704 200.949 57.232C200.597 55.76 200.421 54.128 200.421 52.336C200.421 50.512 200.709 48.816 201.285 47.248C201.893 45.68 202.725 44.336 203.781 43.216C204.837 42.064 206.101 41.168 207.573 40.528C209.045 39.888 210.677 39.568 212.469 39.568C213.461 39.568 214.517 39.648 215.637 39.808C216.757 39.936 217.781 40.096 218.709 40.288C219.637 40.448 220.405 40.608 221.013 40.768C221.653 40.896 221.989 40.96 222.021 40.96V52.432ZM210.933 58.72C211.413 58.72 211.861 58.512 212.277 58.096C212.725 57.68 213.109 57.12 213.429 56.416C213.749 55.712 213.989 54.912 214.149 54.016C214.341 53.088 214.437 52.112 214.437 51.088V45.52C214.213 45.424 213.893 45.344 213.477 45.28C213.093 45.184 212.757 45.136 212.469 45.136C211.701 45.136 211.061 45.312 210.549 45.664C210.037 45.984 209.621 46.448 209.301 47.056C209.013 47.632 208.805 48.336 208.677 49.168C208.549 50 208.485 50.896 208.485 51.856C208.485 52.752 208.501 53.616 208.533 54.448C208.565 55.248 208.661 55.968 208.821 56.608C209.013 57.248 209.269 57.76 209.589 58.144C209.909 58.528 210.357 58.72 210.933 58.72ZM239.033 46.816C238.681 46.816 238.297 46.912 237.881 47.104C237.465 47.296 237.065 47.6 236.681 48.016C236.297 48.4 235.977 48.912 235.721 49.552C235.465 50.16 235.337 50.896 235.337 51.76V64H227.753V51.52C227.753 49.6 227.609 48.016 227.321 46.768C227.065 45.488 226.761 44.448 226.409 43.648C226.025 42.752 225.593 42.032 225.113 41.488L231.209 39.568C231.465 39.888 231.737 40.256 232.025 40.672C232.249 41.024 232.489 41.472 232.745 42.016C233.001 42.56 233.209 43.184 233.369 43.888C234.169 42.352 235.113 41.248 236.201 40.576C237.321 39.904 238.633 39.568 240.137 39.568C240.809 39.568 241.401 39.632 241.913 39.76C242.457 39.856 242.905 39.968 243.257 40.096L241.289 47.344C241.065 47.216 240.761 47.104 240.377 47.008C240.025 46.88 239.577 46.816 239.033 46.816ZM260.03 64V49.024C260.03 47.904 259.886 47.008 259.598 46.336C259.342 45.632 258.846 45.28 258.11 45.28C257.214 45.28 256.382 45.872 255.614 47.056C254.846 48.208 254.462 49.84 254.462 51.952V64H246.878V51.52C246.878 49.6 246.734 48.016 246.446 46.768C246.19 45.488 245.886 44.448 245.534 43.648C245.15 42.752 244.718 42.032 244.238 41.488L250.334 39.568C250.622 39.888 250.91 40.256 251.198 40.672C251.454 41.024 251.694 41.488 251.918 42.064C252.174 42.608 252.382 43.232 252.542 43.936C253.374 42.432 254.51 41.328 255.95 40.624C257.422 39.92 259.022 39.568 260.75 39.568C263.246 39.568 265.022 40.336 266.078 41.872C267.134 43.376 267.662 45.392 267.662 47.92V64H260.03ZM278.733 64.192C276.909 64.192 275.437 63.728 274.317 62.8C273.197 61.84 272.637 60.496 272.637 58.768V39.904H280.221V56.608C280.221 57.344 280.333 57.84 280.557 58.096C280.781 58.352 281.117 58.48 281.565 58.48C281.821 58.48 282.077 58.464 282.333 58.432C282.589 58.368 282.749 58.32 282.813 58.288L283.485 63.04C283.453 63.072 283.309 63.152 283.053 63.28C282.797 63.376 282.461 63.504 282.045 63.664C281.629 63.792 281.133 63.904 280.557 64C279.981 64.128 279.373 64.192 278.733 64.192ZM276.525 28.336C277.869 28.336 278.893 28.736 279.597 29.536C280.301 30.336 280.653 31.344 280.653 32.56C280.653 33.808 280.285 34.848 279.549 35.68C278.845 36.512 277.773 36.928 276.333 36.928C274.989 36.928 273.949 36.528 273.213 35.728C272.509 34.896 272.157 33.92 272.157 32.8C272.157 31.52 272.525 30.464 273.261 29.632C273.997 28.768 275.085 28.336 276.525 28.336ZM300.436 64V49.024C300.436 47.904 300.292 47.008 300.004 46.336C299.748 45.632 299.252 45.28 298.516 45.28C297.62 45.28 296.788 45.872 296.02 47.056C295.252 48.208 294.868 49.84 294.868 51.952V64H287.284V51.52C287.284 49.6 287.14 48.016 286.852 46.768C286.596 45.488 286.292 44.448 285.94 43.648C285.556 42.752 285.124 42.032 284.644 41.488L290.74 39.568C291.028 39.888 291.316 40.256 291.604 40.672C291.86 41.024 292.1 41.488 292.324 42.064C292.58 42.608 292.788 43.232 292.948 43.936C293.78 42.432 294.916 41.328 296.356 40.624C297.828 39.92 299.428 39.568 301.156 39.568C303.652 39.568 305.428 40.336 306.484 41.872C307.54 43.376 308.068 45.392 308.068 47.92V64H300.436ZM317.027 66.448C318.435 66.928 319.651 67.296 320.675 67.552C321.731 67.84 322.851 67.984 324.035 67.984C325.315 67.984 326.339 67.616 327.107 66.88C327.907 66.144 328.307 65.088 328.307 63.712C328.307 62.24 328.083 60.928 327.635 59.776C327.091 61.216 326.291 62.336 325.235 63.136C324.179 63.904 322.803 64.288 321.107 64.288C319.539 64.288 318.163 64 316.979 63.424C315.827 62.848 314.867 62.048 314.099 61.024C313.331 59.968 312.755 58.704 312.371 57.232C312.019 55.76 311.843 54.128 311.843 52.336C311.843 50.512 312.131 48.816 312.707 47.248C313.315 45.68 314.147 44.336 315.203 43.216C316.259 42.064 317.523 41.168 318.995 40.528C320.467 39.888 322.099 39.568 323.891 39.568C324.851 39.568 325.843 39.632 326.867 39.76C327.923 39.888 328.899 40.032 329.795 40.192C330.723 40.352 331.523 40.512 332.195 40.672C332.899 40.8 333.363 40.896 333.587 40.96L333.395 52.912C333.395 53.936 333.475 54.896 333.635 55.792C333.827 56.656 334.019 57.52 334.211 58.384C334.435 59.216 334.643 60.08 334.835 60.976C335.027 61.872 335.123 62.832 335.123 63.856C335.123 67.216 334.163 69.792 332.243 71.584C330.355 73.408 327.779 74.32 324.515 74.32C323.043 74.32 321.507 74.144 319.907 73.792C318.307 73.44 316.755 72.944 315.251 72.304L317.027 66.448ZM322.355 58.72C322.867 58.72 323.331 58.512 323.747 58.096C324.163 57.648 324.531 57.056 324.851 56.32C325.171 55.584 325.411 54.736 325.571 53.776C325.763 52.816 325.859 51.808 325.859 50.752V45.52C325.635 45.424 325.315 45.344 324.899 45.28C324.515 45.184 324.179 45.136 323.891 45.136C323.123 45.136 322.483 45.312 321.971 45.664C321.459 45.984 321.043 46.448 320.723 47.056C320.435 47.632 320.227 48.336 320.099 49.168C319.971 50 319.907 50.896 319.907 51.856C319.907 52.752 319.923 53.616 319.955 54.448C319.987 55.248 320.083 55.968 320.243 56.608C320.435 57.248 320.691 57.76 321.011 58.144C321.331 58.528 321.779 58.72 322.355 58.72ZM338.976 31.504C339.2 31.504 339.728 31.504 340.56 31.504C341.424 31.472 342.368 31.456 343.392 31.456C344.416 31.456 345.44 31.456 346.464 31.456C347.488 31.424 348.32 31.408 348.96 31.408C353.056 31.408 356.128 32.288 358.176 34.048C360.224 35.776 361.248 38.192 361.248 41.296C361.248 44.72 360.096 47.296 357.792 49.024C355.488 50.72 352.336 51.568 348.336 51.568H346.896V64H338.976V31.504ZM346.896 46.336H348.912C350 46.336 350.944 45.968 351.744 45.232C352.544 44.464 352.944 43.28 352.944 41.68C352.944 40.336 352.608 39.168 351.936 38.176C351.296 37.184 350.208 36.672 348.672 36.64C348.256 36.64 347.904 36.656 347.616 36.688C347.328 36.688 347.088 36.704 346.896 36.736V46.336ZM370.941 64.192C369.821 64.192 368.861 64.032 368.061 63.712C367.293 63.392 366.637 62.96 366.093 62.416C365.581 61.84 365.197 61.184 364.941 60.448C364.717 59.712 364.605 58.912 364.605 58.048V30.496L372.189 29.2V56.416C372.189 57.184 372.317 57.728 372.573 58.048C372.861 58.336 373.373 58.48 374.109 58.48C374.461 58.48 374.845 58.448 375.261 58.384C375.709 58.32 376.109 58.256 376.461 58.192L377.181 62.944C376.701 63.168 375.885 63.44 374.733 63.76C373.613 64.048 372.349 64.192 370.941 64.192ZM399.724 52.432C399.724 54.352 399.852 55.952 400.108 57.232C400.364 58.512 400.668 59.536 401.02 60.304C401.404 61.232 401.852 61.952 402.364 62.464L396.268 64.384C395.916 64.064 395.596 63.664 395.308 63.184C395.052 62.768 394.796 62.272 394.54 61.696C394.316 61.088 394.124 60.384 393.964 59.584C393.42 61.088 392.62 62.256 391.564 63.088C390.508 63.888 389.116 64.288 387.388 64.288C385.82 64.288 384.444 64 383.26 63.424C382.108 62.848 381.148 62.048 380.38 61.024C379.612 59.968 379.036 58.704 378.652 57.232C378.3 55.76 378.124 54.128 378.124 52.336C378.124 50.512 378.412 48.816 378.988 47.248C379.596 45.68 380.428 44.336 381.484 43.216C382.54 42.064 383.804 41.168 385.276 40.528C386.748 39.888 388.38 39.568 390.172 39.568C391.164 39.568 392.22 39.648 393.34 39.808C394.46 39.936 395.484 40.096 396.412 40.288C397.34 40.448 398.108 40.608 398.716 40.768C399.356 40.896 399.692 40.96 399.724 40.96V52.432ZM388.636 58.72C389.116 58.72 389.564 58.512 389.98 58.096C390.428 57.68 390.812 57.12 391.132 56.416C391.452 55.712 391.692 54.912 391.852 54.016C392.044 53.088 392.14 52.112 392.14 51.088V45.52C391.916 45.424 391.596 45.344 391.18 45.28C390.796 45.184 390.46 45.136 390.172 45.136C389.404 45.136 388.764 45.312 388.252 45.664C387.74 45.984 387.324 46.448 387.004 47.056C386.716 47.632 386.508 48.336 386.38 49.168C386.252 50 386.188 50.896 386.188 51.856C386.188 52.752 386.204 53.616 386.236 54.448C386.268 55.248 386.364 55.968 386.524 56.608C386.716 57.248 386.972 57.76 387.292 58.144C387.612 58.528 388.06 58.72 388.636 58.72ZM403.418 40.096H407.354L408.17 35.152L414.746 33.712V40.096H420.41L419.498 45.664H414.746V56.368C414.746 57.776 415.482 58.48 416.954 58.48C417.754 58.48 418.522 58.4 419.258 58.24C419.642 58.144 420.026 58.048 420.41 57.952L421.706 63.04C421.066 63.264 420.17 63.52 419.018 63.808C417.898 64.064 416.522 64.192 414.89 64.192C412.49 64.192 410.602 63.696 409.226 62.704C407.882 61.712 407.21 60.032 407.21 57.664V45.664H403.418V40.096ZM437.382 36.208C437.222 35.952 436.95 35.696 436.566 35.44C436.214 35.152 435.798 35.008 435.318 35.008C434.582 35.008 433.958 35.264 433.446 35.776C432.934 36.256 432.678 36.96 432.678 37.888C432.678 38.624 432.742 39.296 432.87 39.904H439.014L438.054 45.664H433.782V63.184C433.782 65.008 433.494 66.544 432.918 67.792C432.374 69.04 431.67 70.096 430.806 70.96C429.942 71.824 428.966 72.544 427.878 73.12C426.822 73.696 425.798 74.224 424.806 74.704L421.35 69.088C422.886 68.288 424.07 67.424 424.902 66.496C425.766 65.6 426.198 64.544 426.198 63.328V45.664H422.502V39.904H426.198C426.006 39.424 425.846 38.928 425.718 38.416C425.622 37.904 425.574 37.36 425.574 36.784C425.574 35.6 425.782 34.56 426.198 33.664C426.614 32.736 427.206 31.952 427.974 31.312C428.742 30.672 429.638 30.192 430.662 29.872C431.718 29.52 432.87 29.344 434.118 29.344C435.878 29.344 437.27 29.632 438.294 30.208C439.35 30.784 440.262 31.504 441.03 32.368L437.382 36.208ZM450.672 39.424C454.48 39.424 457.248 40.512 458.976 42.688C460.736 44.864 461.616 47.872 461.616 51.712C461.616 53.536 461.376 55.232 460.896 56.8C460.448 58.336 459.744 59.68 458.784 60.832C457.856 61.952 456.672 62.848 455.232 63.52C453.824 64.16 452.176 64.48 450.288 64.48C448.368 64.48 446.704 64.208 445.296 63.664C443.92 63.088 442.784 62.272 441.888 61.216C441.024 60.16 440.368 58.88 439.92 57.376C439.504 55.84 439.296 54.128 439.296 52.24C439.296 50.416 439.52 48.72 439.968 47.152C440.448 45.584 441.152 44.24 442.08 43.12C443.04 41.968 444.224 41.072 445.632 40.432C447.072 39.76 448.752 39.424 450.672 39.424ZM450.24 45.136C449.664 45.136 449.184 45.312 448.8 45.664C448.416 45.984 448.112 46.448 447.888 47.056C447.696 47.632 447.552 48.32 447.456 49.12C447.392 49.92 447.36 50.784 447.36 51.712C447.36 52.672 447.408 53.584 447.504 54.448C447.6 55.312 447.76 56.064 447.984 56.704C448.24 57.344 448.592 57.856 449.04 58.24C449.488 58.592 450.048 58.768 450.72 58.768C451.296 58.768 451.776 58.592 452.16 58.24C452.544 57.888 452.832 57.424 453.024 56.848C453.248 56.24 453.392 55.536 453.456 54.736C453.552 53.936 453.6 53.088 453.6 52.192C453.6 51.2 453.552 50.288 453.456 49.456C453.36 48.592 453.184 47.84 452.928 47.2C452.704 46.56 452.368 46.064 451.92 45.712C451.472 45.328 450.912 45.136 450.24 45.136ZM477.674 46.816C477.322 46.816 476.938 46.912 476.522 47.104C476.106 47.296 475.706 47.6 475.322 48.016C474.938 48.4 474.618 48.912 474.362 49.552C474.106 50.16 473.978 50.896 473.978 51.76V64H466.394V51.52C466.394 49.6 466.25 48.016 465.962 46.768C465.706 45.488 465.402 44.448 465.05 43.648C464.666 42.752 464.234 42.032 463.754 41.488L469.85 39.568C470.106 39.888 470.378 40.256 470.666 40.672C470.89 41.024 471.13 41.472 471.386 42.016C471.642 42.56 471.85 43.184 472.01 43.888C472.81 42.352 473.754 41.248 474.842 40.576C475.962 39.904 477.274 39.568 478.778 39.568C479.45 39.568 480.042 39.632 480.554 39.76C481.098 39.856 481.546 39.968 481.898 40.096L479.93 47.344C479.706 47.216 479.402 47.104 479.018 47.008C478.666 46.88 478.218 46.816 477.674 46.816ZM510.239 64V49.024C510.239 47.904 510.143 47.008 509.951 46.336C509.759 45.632 509.327 45.28 508.655 45.28C507.887 45.28 507.167 45.84 506.495 46.96C505.823 48.048 505.487 49.504 505.487 51.328V64H497.855V49.024C497.855 47.904 497.759 47.008 497.567 46.336C497.407 45.632 496.975 45.28 496.271 45.28C495.471 45.28 494.735 45.856 494.062 47.008C493.423 48.128 493.103 49.648 493.103 51.568V64H485.519V51.52C485.519 49.6 485.375 48.016 485.087 46.768C484.831 45.488 484.527 44.448 484.175 43.648C483.791 42.752 483.359 42.032 482.879 41.488L488.975 39.568C489.231 39.888 489.503 40.256 489.791 40.672C490.047 41.024 490.287 41.488 490.511 42.064C490.767 42.608 490.991 43.232 491.183 43.936C491.951 42.432 493.007 41.328 494.351 40.624C495.727 39.92 497.247 39.568 498.911 39.568C500.319 39.568 501.455 39.856 502.319 40.432C503.215 40.976 503.935 41.776 504.479 42.832C505.311 41.68 506.303 40.848 507.455 40.336C508.607 39.824 509.887 39.568 511.295 39.568C512.543 39.568 513.583 39.776 514.415 40.192C515.247 40.576 515.903 41.136 516.383 41.872C516.895 42.576 517.263 43.456 517.487 44.512C517.711 45.536 517.823 46.672 517.823 47.92V64H510.239Z" fill="black"/>
</svg>
